HIERARCHY
ROOT Hips
{
  OFFSET 90.7885 88.945 -76.2838
  CHANNELS 6 Xposition Yposition Zposition Zrotation Xrotation Yrotation
  JOINT LeftUpLeg
  {
    OFFSET 8.64259 1.95398 -2.38835
    CHANNELS 3 Zrotation Xrotation Yrotation
    JOINT LeftLeg
    {
      OFFSET 43.7702 0 0
      CHANNELS 3 Zrotation Xrotation Yrotation
      JOINT LeftFoot
      {
        OFFSET 40.6238 0 0
        CHANNELS 3 Zrotation Xrotation Yrotation
        JOINT LeftToeBase
        {
          OFFSET 12.7242 0 0
          CHANNELS 3 Zrotation Xrotation Yrotation
          End Site
          {
            OFFSET 0 0 0
          }
        }
      }
    }
  }
  JOINT RightUpLeg
  {
    OFFSET -8.2249 1.95398 -2.59336
    CHANNELS 3 Zrotation Xrotation Yrotation
    JOINT RightLeg
    {
      OFFSET 43.5653 0 0
      CHANNELS 3 Zrotation Xrotation Yrotation
      JOINT RightFoot
      {
        OFFSET 40.6238 0 0
        CHANNELS 3 Zrotation Xrotation Yrotation
        JOINT RightToeBase
        {
          OFFSET 12.7242 0 0
          CHANNELS 3 Zrotation Xrotation Yrotation
          End Site
          {
            OFFSET 0 0 0
          }
        }
      }
    }
  }
  JOINT Spine
  {
    OFFSET 0.165834 0.87714 6.61349
    CHANNELS 3 Zrotation Xrotation Yrotation
    JOINT Spine1
    {
      OFFSET 7.38963 1.71661e-005 0
      CHANNELS 3 Zrotation Xrotation Yrotation
      JOINT Spine2
      {
        OFFSET 11.9445 1.14441e-005 0
        CHANNELS 3 Zrotation Xrotation Yrotation
        JOINT Spine3
        {
          OFFSET 14.7254 4.19617e-005 0
          CHANNELS 3 Zrotation Xrotation Yrotation
          JOINT Spine4
          {
            OFFSET 10.9679 0 0
            CHANNELS 3 Zrotation Xrotation Yrotation
            JOINT RightShoulder
            {
              OFFSET 2.46616 -1.6653 3.69651
              CHANNELS 3 Zrotation Xrotation Yrotation
              JOINT RightArm
              {
                OFFSET 13.0012 0 0
                CHANNELS 3 Zrotation Xrotation Yrotation
                JOINT RightForeArm
                {
                  OFFSET 28.7848 1.52588e-005 0
                  CHANNELS 3 Zrotation Xrotation Yrotation
                  JOINT RightHand
                  {
                    OFFSET 26.5688 1.52588e-005 0
                    CHANNELS 3 Zrotation Xrotation Yrotation
                    End Site
                    {
                      OFFSET 0 0 0
                    }
                  }
                }
              }
            }
            JOINT LeftShoulder
            {
              OFFSET 2.38034 -1.29275 -3.7523
              CHANNELS 3 Zrotation Xrotation Yrotation
              JOINT LeftArm
              {
                OFFSET 16.3182 6.10352e-005 0
                CHANNELS 3 Zrotation Xrotation Yrotation
                JOINT LeftForeArm
                {
                  OFFSET 27.0901 0 0
                  CHANNELS 3 Zrotation Xrotation Yrotation
                  JOINT LeftHand
                  {
                    OFFSET 24.5451 1.52588e-005 0
                    CHANNELS 3 Zrotation Xrotation Yrotation
                    End Site
                    {
                      OFFSET 0 0 0
                    }
                  }
                }
              }
            }
            JOINT Neck
            {
              OFFSET 5.0226 -0.0266342 0
              CHANNELS 3 Zrotation Xrotation Yrotation
              JOINT Head
              {
                OFFSET 6.69363 2.86102e-005 0
                CHANNELS 3 Zrotation Xrotation Yrotation
                End Site
                {
                  OFFSET 0 0 0
                }
              }
            }
          }
        }
      }
    }
  }
}
MOTION
Frames:	12
Frame Time:	0.0416667
-251.77 85.6851 -210.549 92.9029 13.4418 92.9371 178.63 22.1596 98.4509 -81.2672 51.3299 20.6443 89.5147 15.4685 1.67281 21.4836 7.53306 -8.39463 151.359 -22.1097 103.787 -81.2727 7.02526 22.7635 74.1997 -9.98327 -1.64597 11.1331 -1.55569 5.61606 -4.26302 9.43618 -90.935 7.95518 -8.91844 -1.35238 -3.68522 -8.96928 -0.955412 -26.4277 -8.09727 -3.98663 -6.41509 -8.09726 -3.98663 89.7839 -29.8659 -107.239 21.8421 33.2393 3.42017 32.6795 -12.2168 -92.4372 -51.3787 27.565 -53.8264 -88.9647 -39.9211 78.059 -11.6464 -10.4371 -26.3029 152.227 -6.26631 -96.1071 21.4472 -14.3521 -65.7284 29.865 -8.71272 -12.8153 -6.31402 -3.29586 2.2635 
-247.452 87.2747 -207.76 92.5788 12.6665 93.4668 177.897 15.8399 100.796 -74.0335 49.1541 21.1476 92.7415 14.5639 -0.128287 20.8753 6.66676 -7.12309 143.571 -12.072 96.4866 -90.2641 1.62018 13.7192 79.325 -10.3 -2.00119 18.4397 -5.22574 11.8921 -4.73213 9.40274 -90.9687 8.01834 -9.86967 -1.35889 -3.61499 -9.9198 -0.918901 -26.408 -9.00156 -4.28511 -6.3954 -9.00156 -4.28513 90.3133 -29.1247 -106.47 25.6223 28.5102 1.98264 32.4902 -18.1384 -88.9855 -51.7 30.5603 -58.5503 -88.4258 -38.3827 78.5992 -13.1112 -14.1787 -25.8244 149.499 -5.16806 -98.5665 20.6769 -13.8894 -65.7542 29.7347 -6.42128 -11.9999 -7.52775 -1.42833 1.66358 
-243.798 88.8328 -205.083 90.7047 7.0407 95.9817 -178.692 11.1206 104.718 -62.6895 45.0703 17.3061 93.4169 13.9059 -1.58724 24.7335 7.64981 -9.60628 143.865 -0.854408 97.3529 -95.3327 0.0236466 7.24116 86.0246 -12.4309 -3.65157 34.592 -4.21922 9.94285 -4.47597 9.21442 -91.298 8.37286 -9.50473 -1.98258 -3.26386 -9.58271 -1.55862 -26.0214 -8.46693 -4.76539 -6.00876 -8.46693 -4.7654 91.4531 -28.665 -104.329 27.7921 22.1865 0.595724 30.9389 -22.7903 -83.4167 -52.5891 34.1786 -63.9077 -89.4382 -39.0698 77.0434 -12.7506 -17.4924 -26.7786 145.824 -2.39851 -102.079 19.8849 -13.361 -65.5698 28.8627 -4.02952 -10.1677 -7.52645 0.051635 1.63597 
-240.635 90.2231 -202.523 89.3087 -0.694497 97.9207 -173.819 7.17266 108.323 -54.0293 43.3456 13.7422 87.9095 13.0051 2.30703 34.1337 7.91903 -13.7955 147.564 12.4085 97.5974 -96.4878 0.128887 4.04477 92.1546 -15.9205 -7.67381 28.3554 -3.93577 9.27164 -4.15803 9.07868 -91.5601 8.62192 -8.98719 -2.51032 -3.01936 -9.08888 -2.10934 -25.7362 -7.81585 -5.10827 -5.72358 -7.81587 -5.10828 91.6285 -27.1893 -104.505 29.9772 15.4316 -0.61031 28.6963 -18.5231 -83.201 -48.5989 31.8203 -64.3031 -88.8555 -39.8228 78.2199 -12.3202 -20.3785 -26.6778 143.605 -0.444729 -104.299 18.9351 -12.7572 -65.4629 29.2531 -1.03584 -7.05316 -9.77173 1.75948 0.619197 
-236.879 91.3304 -199.672 90.3774 -9.66771 99.0995 -169.059 1.07482 109.985 -46.8531 41.0088 10.0506 79.2939 10.1025 5.0641 44.9637 4.98118 -13.6817 154.116 22.9186 97.9578 -93.9677 -0.294304 2.47428 93.1261 -17.0156 -10.7509 15.2692 -4.79653 10.9645 -3.61395 9.12764 -91.5897 8.52729 -7.91371 -2.64623 -3.12141 -8.02242 -2.29342 -25.7856 -6.75203 -4.90982 -5.77289 -6.75204 -4.90984 91.8498 -26.9792 -104.117 31.0867 8.06073 -1.11372 21.0236 -13.8771 -86.5946 -49.1445 27.2879 -56.7743 -88.8719 -39.1196 78.0178 -13.6619 -23.0517 -25.7527 142.082 1.174 -105.932 18.3554 -12.3878 -65.3793 30.1043 1.17372 -5.90804 -12.6454 3.33762 1.82825 
-232.575 92.038 -196.266 90.825 -19.5519 99.4195 -165.953 -6.31572 109.696 -36.9332 35.0391 5.6054 69.4454 5.68583 5.25188 56.7801 1.66767 -12.7147 162.055 33.0269 98.0817 -88.8609 6.24723 1.69101 92.4584 -14.784 -5.05894 17.3793 -2.69105 7.14304 -3.01125 9.02169 -91.6027 8.74785 -6.71933 -2.72961 -2.908 -6.83287 -2.43015 -25.5234 -5.58848 -4.62632 -5.51077 -5.58847 -4.62631 91.7137 -26.346 -104.635 31.7874 1.29634 -0.812344 16.9122 -7.54663 -87.4864 -44.5769 20.7717 -49.3111 -89.3835 -40.0605 77.3894 -13.1711 -25.5653 -24.3673 141.674 2.83828 -107.765 17.8954 -12.0187 -64.9904 29.5349 4.13909 -3.39025 -13.7095 5.15091 1.58024 
-227.309 92.7329 -192.132 89.5837 -30.3461 98.445 -166.316 -13.8241 105.98 -27.736 26.2839 2.47032 57.8983 0.313407 4.95035 57.2477 3.6199 -17.2539 170.258 41.4429 98.3332 -79.8709 8.55068 0.743047 89.3086 -12.9112 -2.06297 17.241 -2.05978 5.98815 -2.32995 8.74419 -91.5561 9.3199 -5.34467 -2.69328 -2.34229 -5.45798 -2.45497 -24.9174 -4.28855 -4.17605 -4.90477 -4.28854 -4.17604 91.3561 -26.0838 -105.495 31.6663 -4.73225 -1.06197 13.029 -3.01818 -86.2408 -39.3373 12.656 -35.6825 -89.4914 -40.1293 77.2253 -13.2116 -27.8046 -23.1193 141.742 4.5932 -109.628 17.4903 -11.7187 -64.7393 28.899 6.73505 -1.28581 -15.2503 6.78114 1.55361 
-221.604 93.3565 -187.429 85.4025 -39.2692 95.6865 -171.468 -16.6521 98.674 -24.8296 16.3126 2.92513 51.6617 -2.73537 2.31355 30.0493 3.58123 -6.27912 176.147 47.5911 98.9309 -66.9588 6.70445 -0.155798 86.1879 -12.2586 -1.31325 15.2837 -1.64789 5.41761 -1.81352 8.26694 -91.6628 10.2782 -4.37294 -2.92451 -1.38826 -4.49737 -2.72908 -23.9339 -3.29255 -4.10321 -3.92129 -3.29255 -4.10322 91.1526 -25.0101 -106.355 30.9998 -9.5681 -1.67451 10.5085 0.74119 -85.2608 -31.391 4.6386 -18.5242 -89.8722 -41.5437 76.9542 -12.0206 -29.9718 -21.4401 140.806 6.41845 -110.95 17.2487 -11.5005 -64.41 27.9143 9.57668 1.64956 -16.7206 8.44549 1.02612 
-215.336 93.8688 -182.457 81.1473 -44.9957 92.1525 -175.627 -16.522 92.3555 -26.5871 10.7045 3.54114 52.3594 -2.91589 0.829769 17.8358 1.58827 -0.178326 179.336 49.7882 99.2747 -52.6405 -0.564322 -0.830105 81.1155 -10.9491 -2.59853 15.0179 -1.29666 4.82655 -1.55482 7.91353 -91.7215 10.9878 -3.89237 -3.05415 -0.680482 -4.02294 -2.87985 -23.2141 -2.79532 -4.08208 -3.20146 -2.79532 -4.08208 90.7825 -25.032 -107.14 28.7239 -12.2094 -3.06546 9.92755 2.64151 -84.5598 -27.1343 2.25954 -11.7554 -89.5816 -41.0201 77.3014 -13.3746 -31.8512 -20.7224 141.006 7.64706 -112.211 17.0209 -11.3094 -64.1579 27.1971 11.8019 2.78412 -17.4971 10.1153 1.50751 
-209.087 93.8824 -177.021 79.2326 -47.7549 90.5754 -175.172 -16.5568 90.7862 -31.365 13.8801 1.84222 55.9028 -1.53934 3.15048 21.9414 0.585849 0.37421 -179.843 48.2757 100.012 -39.2292 -9.36765 -0.775163 76.5019 -9.29124 -4.13931 18.1148 -1.47448 4.82932 -1.5236 7.81516 -91.837 11.1792 -3.88597 -3.27674 -0.489676 -4.02634 -3.10254 -23.0178 -2.72249 -4.29222 -3.00513 -2.7225 -4.29223 90.4498 -25.3708 -107.708 25.833 -13.1223 -5.42261 8.83452 2.45753 -84.1695 -26.5654 2.05144 -11.2708 -89.0552 -41.7651 78.3533 -14.2143 -32.7549 -21.8008 142.763 8.51471 -113.8 16.6718 -11.1285 -64.2637 26.6982 13.3174 3.97626 -17.5845 11.1304 1.72619 
-203.264 93.3825 -171.819 79.7454 -49.8497 89.5473 -174.889 -17.72 88.5028 -35.4306 15.2591 -0.0842209 57.6237 -0.508898 1.49739 27.1985 0.554994 -0.524812 179.933 45.7783 100.269 -31.1941 -15.3148 -0.524647 75.8056 -8.42139 -1.6938 17.864 -1.14014 4.24169 -1.5065 7.83813 -91.7379 11.1394 -3.80555 -3.08885 -0.529282 -3.93775 -2.91834 -23.0606 -2.70211 -4.08902 -3.04796 -2.70212 -4.08903 90.0613 -26.507 -108.042 23.0668 -13.8439 -7.70405 9.30941 2.98396 -83.4967 -26.3082 1.67964 -9.77081 -89.642 -44.3842 78.0217 -11.9727 -33.2883 -21.9562 141.766 9.94441 -114.31 16.5765 -11.057 -64.1934 25.1539 14.2483 5.15591 -16.7627 11.7862 1.08412 
-197.548 92.5017 -166.611 81.7342 -51.5898 89.3164 -173.782 -18.0925 86.7282 -42.4404 14.6512 -1.93382 56.8806 -0.768349 -0.239064 31.5707 0.451576 -1.20763 179.22 43.2487 100.709 -28.9652 -15.9733 -0.172876 73.8523 -7.31715 -1.18095 21.0281 -1.49558 4.54168 -1.48794 7.87051 -91.5546 11.0836 -3.68289 -2.73831 -0.584693 -3.79982 -2.57351 -23.1218 -2.69024 -3.71814 -3.10919 -2.69024 -3.71814 89.1903 -27.3442 -109.48 21.03 -12.9219 -8.96358 8.6626 2.4586 -82.0013 -24.7464 1.40889 -9.0903 -90.0479 -47.5599 78.1157 -8.76527 -32.6064 -21.9333 141.783 10.8636 -114.882 16.3922 -10.9811 -64.3407 21.1411 14.9434 7.28536 -14.6946 12.2004 -0.283745 
